<mxfile host="app.diagrams.net" agent="Mozilla/5.0 (Windows NT 10.0; Win64; x64) AppleWebKit/537.36 (KHTML, like Gecko) Chrome/129.0.0.0 Safari/537.36" version="24.7.17">
  <diagram name="Halaman-1" id="tu4P3jzZZ7nshK3MP51_">
    <mxGraphModel grid="1" page="1" gridSize="10" guides="1" tooltips="1" connect="1" arrows="1" fold="1" pageScale="1" pageWidth="827" pageHeight="1169" math="0" shadow="0">
      <root>
        <mxCell id="0" />
        <mxCell id="1" parent="0" />
        <mxCell id="Mb6mEWIL-vGKcx3RdBDx-1" value="" style="edgeStyle=orthogonalEdgeStyle;rounded=0;orthogonalLoop=1;jettySize=auto;html=1;align=center;" edge="1" parent="1" source="Mb6mEWIL-vGKcx3RdBDx-2" target="Mb6mEWIL-vGKcx3RdBDx-4">
          <mxGeometry relative="1" as="geometry" />
        </mxCell>
        <mxCell id="Mb6mEWIL-vGKcx3RdBDx-2" value="Mulai" style="ellipse;whiteSpace=wrap;html=1;" vertex="1" parent="1">
          <mxGeometry x="60" y="-1140" width="148.01" height="105" as="geometry" />
        </mxCell>
        <mxCell id="Mb6mEWIL-vGKcx3RdBDx-3" value="" style="edgeStyle=orthogonalEdgeStyle;rounded=0;orthogonalLoop=1;jettySize=auto;html=1;align=center;" edge="1" parent="1" source="Mb6mEWIL-vGKcx3RdBDx-4" target="Mb6mEWIL-vGKcx3RdBDx-6">
          <mxGeometry relative="1" as="geometry" />
        </mxCell>
        <mxCell id="Mb6mEWIL-vGKcx3RdBDx-4" value="&lt;font style=&quot;vertical-align: inherit;&quot;&gt;&lt;font style=&quot;vertical-align: inherit;&quot;&gt;Deklarasi Variabel&lt;/font&gt;&lt;/font&gt;&lt;div&gt;&lt;span style=&quot;background-color: initial;&quot; class=&quot;hljs-bullet&quot;&gt;&lt;font style=&quot;vertical-align: inherit;&quot;&gt;&lt;font style=&quot;vertical-align: inherit;&quot;&gt;- &lt;/font&gt;&lt;/font&gt;&lt;/span&gt;&lt;span style=&quot;background-color: initial;&quot;&gt;&lt;font style=&quot;vertical-align: inherit;&quot;&gt;&lt;font style=&quot;vertical-align: inherit;&quot;&gt;Pin untuk 7-Segmen (a, b, c, d, e, f, g)&lt;/font&gt;&lt;/font&gt;&lt;/span&gt;&lt;/div&gt;&lt;div&gt;&lt;span style=&quot;background-color: initial;&quot; class=&quot;hljs-bullet&quot;&gt;&lt;font style=&quot;vertical-align: inherit;&quot;&gt;&lt;font style=&quot;vertical-align: inherit;&quot;&gt;- &lt;/font&gt;&lt;/font&gt;&lt;/span&gt;&lt;span style=&quot;background-color: initial;&quot;&gt;&lt;font style=&quot;vertical-align: inherit;&quot;&gt;&lt;font style=&quot;vertical-align: inherit;&quot;&gt;Pin untuk Tampilan 7-Segmen (dig1, dig2)&lt;/font&gt;&lt;/font&gt;&lt;/span&gt;&lt;/div&gt;" style="whiteSpace=wrap;html=1;align=center;" vertex="1" parent="1">
          <mxGeometry x="283" y="-1150" width="230" height="130" as="geometry" />
        </mxCell>
        <mxCell id="Mb6mEWIL-vGKcx3RdBDx-8" value="" style="edgeStyle=orthogonalEdgeStyle;rounded=0;orthogonalLoop=1;jettySize=auto;html=1;" edge="1" parent="1" source="Mb6mEWIL-vGKcx3RdBDx-6" target="Mb6mEWIL-vGKcx3RdBDx-7">
          <mxGeometry relative="1" as="geometry" />
        </mxCell>
        <mxCell id="Mb6mEWIL-vGKcx3RdBDx-6" value="&lt;font style=&quot;vertical-align: inherit;&quot;&gt;&lt;font style=&quot;vertical-align: inherit;&quot;&gt;&lt;font style=&quot;vertical-align: inherit;&quot;&gt;&lt;font style=&quot;vertical-align: inherit;&quot;&gt;Pinmode sebagai OUTPUT ( &lt;/font&gt;&lt;/font&gt;&lt;/font&gt;&lt;/font&gt;&lt;span class=&quot;hljs-selector-tag&quot;&gt;&lt;font style=&quot;vertical-align: inherit;&quot;&gt;&lt;font style=&quot;vertical-align: inherit;&quot;&gt;&lt;font style=&quot;vertical-align: inherit;&quot;&gt;&lt;font style=&quot;vertical-align: inherit;&quot;&gt;a&lt;/font&gt;&lt;/font&gt;&lt;/font&gt;&lt;/font&gt;&lt;/span&gt;&lt;font style=&quot;vertical-align: inherit;&quot;&gt;&lt;font style=&quot;vertical-align: inherit;&quot;&gt;&lt;font style=&quot;vertical-align: inherit;&quot;&gt;&lt;font style=&quot;vertical-align: inherit;&quot;&gt; , &lt;/font&gt;&lt;/font&gt;&lt;/font&gt;&lt;/font&gt;&lt;span class=&quot;hljs-selector-tag&quot;&gt;&lt;font style=&quot;vertical-align: inherit;&quot;&gt;&lt;font style=&quot;vertical-align: inherit;&quot;&gt;&lt;font style=&quot;vertical-align: inherit;&quot;&gt;&lt;font style=&quot;vertical-align: inherit;&quot;&gt;b&lt;/font&gt;&lt;/font&gt;&lt;/font&gt;&lt;/font&gt;&lt;/span&gt;&lt;font style=&quot;vertical-align: inherit;&quot;&gt;&lt;font style=&quot;vertical-align: inherit;&quot;&gt;&lt;font style=&quot;vertical-align: inherit;&quot;&gt;&lt;font style=&quot;vertical-align: inherit;&quot;&gt; , c, d, e, f, g, dig1, dig2)&lt;/font&gt;&lt;/font&gt;&lt;/font&gt;&lt;/font&gt;" style="whiteSpace=wrap;html=1;" vertex="1" parent="1">
          <mxGeometry x="543" y="-1135" width="230" height="100" as="geometry" />
        </mxCell>
        <mxCell id="Mb6mEWIL-vGKcx3RdBDx-10" value="" style="edgeStyle=orthogonalEdgeStyle;rounded=0;orthogonalLoop=1;jettySize=auto;html=1;" edge="1" parent="1" source="Mb6mEWIL-vGKcx3RdBDx-7" target="Mb6mEWIL-vGKcx3RdBDx-9">
          <mxGeometry relative="1" as="geometry" />
        </mxCell>
        <mxCell id="Mb6mEWIL-vGKcx3RdBDx-7" value="START LOOP" style="ellipse;whiteSpace=wrap;html=1;" vertex="1" parent="1">
          <mxGeometry x="598" y="-920" width="120" height="80" as="geometry" />
        </mxCell>
        <mxCell id="Mb6mEWIL-vGKcx3RdBDx-14" value="" style="edgeStyle=orthogonalEdgeStyle;rounded=0;orthogonalLoop=1;jettySize=auto;html=1;" edge="1" parent="1" source="Mb6mEWIL-vGKcx3RdBDx-9" target="Mb6mEWIL-vGKcx3RdBDx-13">
          <mxGeometry relative="1" as="geometry" />
        </mxCell>
        <mxCell id="Mb6mEWIL-vGKcx3RdBDx-9" value="Deklarasi Variable&lt;br&gt;int x,z;" style="whiteSpace=wrap;html=1;" vertex="1" parent="1">
          <mxGeometry x="323" y="-920" width="190" height="80" as="geometry" />
        </mxCell>
        <mxCell id="Mb6mEWIL-vGKcx3RdBDx-18" value="" style="edgeStyle=orthogonalEdgeStyle;rounded=0;orthogonalLoop=1;jettySize=auto;html=1;" edge="1" parent="1" source="Mb6mEWIL-vGKcx3RdBDx-13" target="Mb6mEWIL-vGKcx3RdBDx-17">
          <mxGeometry relative="1" as="geometry" />
        </mxCell>
        <mxCell id="Mb6mEWIL-vGKcx3RdBDx-13" value="FOR (X = 20;&amp;nbsp; X&amp;gt;= 0; X--)" style="whiteSpace=wrap;html=1;" vertex="1" parent="1">
          <mxGeometry x="53" y="-920" width="190" height="80" as="geometry" />
        </mxCell>
        <mxCell id="Mb6mEWIL-vGKcx3RdBDx-23" value="" style="edgeStyle=orthogonalEdgeStyle;rounded=0;orthogonalLoop=1;jettySize=auto;html=1;" edge="1" parent="1" source="Mb6mEWIL-vGKcx3RdBDx-17" target="Mb6mEWIL-vGKcx3RdBDx-22">
          <mxGeometry relative="1" as="geometry" />
        </mxCell>
        <mxCell id="Mb6mEWIL-vGKcx3RdBDx-24" value="" style="edgeStyle=orthogonalEdgeStyle;rounded=0;orthogonalLoop=1;jettySize=auto;html=1;" edge="1" parent="1" source="Mb6mEWIL-vGKcx3RdBDx-17" target="Mb6mEWIL-vGKcx3RdBDx-21">
          <mxGeometry relative="1" as="geometry" />
        </mxCell>
        <mxCell id="Mb6mEWIL-vGKcx3RdBDx-17" value="X &amp;gt;= 0&amp;nbsp;" style="rhombus;whiteSpace=wrap;html=1;" vertex="1" parent="1">
          <mxGeometry x="69" y="-782" width="158" height="130" as="geometry" />
        </mxCell>
        <mxCell id="Mb6mEWIL-vGKcx3RdBDx-30" style="edgeStyle=orthogonalEdgeStyle;rounded=0;orthogonalLoop=1;jettySize=auto;html=1;" edge="1" parent="1" source="Mb6mEWIL-vGKcx3RdBDx-21" target="Mb6mEWIL-vGKcx3RdBDx-29">
          <mxGeometry relative="1" as="geometry" />
        </mxCell>
        <mxCell id="Mb6mEWIL-vGKcx3RdBDx-21" value="NO" style="text;html=1;align=center;verticalAlign=middle;whiteSpace=wrap;rounded=0;" vertex="1" parent="1">
          <mxGeometry x="260" y="-732" width="60" height="30" as="geometry" />
        </mxCell>
        <mxCell id="Mb6mEWIL-vGKcx3RdBDx-28" value="" style="edgeStyle=orthogonalEdgeStyle;rounded=0;orthogonalLoop=1;jettySize=auto;html=1;" edge="1" parent="1" source="Mb6mEWIL-vGKcx3RdBDx-22" target="Mb6mEWIL-vGKcx3RdBDx-27">
          <mxGeometry relative="1" as="geometry" />
        </mxCell>
        <mxCell id="Mb6mEWIL-vGKcx3RdBDx-22" value="YES" style="text;html=1;align=center;verticalAlign=middle;whiteSpace=wrap;rounded=0;" vertex="1" parent="1">
          <mxGeometry x="118" y="-561" width="60" height="30" as="geometry" />
        </mxCell>
        <mxCell id="Mb6mEWIL-vGKcx3RdBDx-33" value="" style="edgeStyle=orthogonalEdgeStyle;rounded=0;orthogonalLoop=1;jettySize=auto;html=1;" edge="1" parent="1" source="Mb6mEWIL-vGKcx3RdBDx-27" target="Mb6mEWIL-vGKcx3RdBDx-31">
          <mxGeometry relative="1" as="geometry" />
        </mxCell>
        <mxCell id="Mb6mEWIL-vGKcx3RdBDx-27" value="&lt;br&gt;Hitung puluhan = x / &lt;span class=&quot;hljs-number&quot;&gt;10&lt;/span&gt; Hitung satuan = x % &lt;span class=&quot;hljs-number&quot;&gt;10&lt;/span&gt; &lt;div&gt;&lt;br/&gt;&lt;/div&gt;" style="whiteSpace=wrap;html=1;" vertex="1" parent="1">
          <mxGeometry x="260" y="-591.5" width="162" height="91" as="geometry" />
        </mxCell>
        <mxCell id="Mb6mEWIL-vGKcx3RdBDx-32" value="" style="edgeStyle=orthogonalEdgeStyle;rounded=0;orthogonalLoop=1;jettySize=auto;html=1;" edge="1" parent="1" source="Mb6mEWIL-vGKcx3RdBDx-29" target="Mb6mEWIL-vGKcx3RdBDx-31">
          <mxGeometry relative="1" as="geometry" />
        </mxCell>
        <mxCell id="Mb6mEWIL-vGKcx3RdBDx-29" value="&lt;br&gt;Hitung puluhan = x / &lt;span class=&quot;hljs-number&quot;&gt;10&lt;/span&gt; Hitung satuan = x % &lt;span class=&quot;hljs-number&quot;&gt;10&lt;/span&gt; &lt;div&gt;&lt;br/&gt;&lt;/div&gt;" style="whiteSpace=wrap;html=1;" vertex="1" parent="1">
          <mxGeometry x="564" y="-762.5" width="162" height="91" as="geometry" />
        </mxCell>
        <mxCell id="Mb6mEWIL-vGKcx3RdBDx-35" value="" style="edgeStyle=orthogonalEdgeStyle;rounded=0;orthogonalLoop=1;jettySize=auto;html=1;" edge="1" parent="1" source="Mb6mEWIL-vGKcx3RdBDx-31" target="Mb6mEWIL-vGKcx3RdBDx-34">
          <mxGeometry relative="1" as="geometry" />
        </mxCell>
        <mxCell id="Mb6mEWIL-vGKcx3RdBDx-31" value="&lt;div&gt;&lt;div style=&quot;background-color: rgb(255, 255, 254); font-family: Consolas, &amp;quot;Courier New&amp;quot;, monospace; font-size: 14px; line-height: 19px; white-space: pre;&quot;&gt;&lt;div&gt;&amp;nbsp; &amp;nbsp; &lt;span style=&quot;color: #e97366;&quot;&gt;digitalWrite&lt;/span&gt;(dig1, &lt;span style=&quot;color: #00979c;&quot;&gt;LOW&lt;/span&gt;);&lt;/div&gt;&lt;div&gt;&amp;nbsp; &amp;nbsp; &lt;span style=&quot;color: #e97366;&quot;&gt;digitalWrite&lt;/span&gt;(dig2, &lt;span style=&quot;color: #00979c;&quot;&gt;HIGH&lt;/span&gt;);&lt;/div&gt;&lt;/div&gt;&lt;/div&gt;" style="whiteSpace=wrap;html=1;" vertex="1" parent="1">
          <mxGeometry x="530" y="-591.5" width="230" height="91.5" as="geometry" />
        </mxCell>
        <mxCell id="Mb6mEWIL-vGKcx3RdBDx-37" value="" style="edgeStyle=orthogonalEdgeStyle;rounded=0;orthogonalLoop=1;jettySize=auto;html=1;" edge="1" parent="1" source="Mb6mEWIL-vGKcx3RdBDx-34" target="Mb6mEWIL-vGKcx3RdBDx-36">
          <mxGeometry relative="1" as="geometry" />
        </mxCell>
        <mxCell id="Mb6mEWIL-vGKcx3RdBDx-34" value="Panggil Fungsi angka(puluhan);" style="shape=process;whiteSpace=wrap;html=1;backgroundOutline=1;" vertex="1" parent="1">
          <mxGeometry x="567.5" y="-472" width="155" height="97.75" as="geometry" />
        </mxCell>
        <mxCell id="Mb6mEWIL-vGKcx3RdBDx-39" value="" style="edgeStyle=orthogonalEdgeStyle;rounded=0;orthogonalLoop=1;jettySize=auto;html=1;" edge="1" parent="1" source="Mb6mEWIL-vGKcx3RdBDx-36" target="Mb6mEWIL-vGKcx3RdBDx-38">
          <mxGeometry relative="1" as="geometry" />
        </mxCell>
        <mxCell id="Mb6mEWIL-vGKcx3RdBDx-36" value="Panggil Fungsi clear();" style="shape=process;whiteSpace=wrap;html=1;backgroundOutline=1;" vertex="1" parent="1">
          <mxGeometry x="332.5" y="-472" width="155" height="97.75" as="geometry" />
        </mxCell>
        <mxCell id="Mb6mEWIL-vGKcx3RdBDx-41" value="" style="edgeStyle=orthogonalEdgeStyle;rounded=0;orthogonalLoop=1;jettySize=auto;html=1;" edge="1" parent="1" source="Mb6mEWIL-vGKcx3RdBDx-38" target="Mb6mEWIL-vGKcx3RdBDx-40">
          <mxGeometry relative="1" as="geometry" />
        </mxCell>
        <mxCell id="Mb6mEWIL-vGKcx3RdBDx-38" value="&lt;div style=&quot;background-color: rgb(255, 255, 254); font-family: Consolas, &amp;quot;Courier New&amp;quot;, monospace; font-size: 14px; line-height: 19px; white-space: pre;&quot;&gt;&lt;div&gt;&amp;nbsp; &amp;nbsp; &lt;span style=&quot;color: #e97366;&quot;&gt;digitalWrite&lt;/span&gt;(dig1, &lt;span style=&quot;color: #00979c;&quot;&gt;HIGH&lt;/span&gt;);&lt;/div&gt;&lt;div&gt;&amp;nbsp; &amp;nbsp; &lt;span style=&quot;color: #e97366;&quot;&gt;digitalWrite&lt;/span&gt;(dig2, &lt;span style=&quot;color: #00979c;&quot;&gt;LOW&lt;/span&gt;);&lt;/div&gt;&lt;div&gt;&lt;/div&gt;&lt;/div&gt;" style="whiteSpace=wrap;html=1;" vertex="1" parent="1">
          <mxGeometry x="53" y="-464.89" width="240" height="83.53" as="geometry" />
        </mxCell>
        <mxCell id="Mb6mEWIL-vGKcx3RdBDx-43" value="" style="edgeStyle=orthogonalEdgeStyle;rounded=0;orthogonalLoop=1;jettySize=auto;html=1;" edge="1" parent="1" source="Mb6mEWIL-vGKcx3RdBDx-40" target="Mb6mEWIL-vGKcx3RdBDx-42">
          <mxGeometry relative="1" as="geometry" />
        </mxCell>
        <mxCell id="Mb6mEWIL-vGKcx3RdBDx-40" value="Panggil Fungsi angka(satuan);" style="shape=process;whiteSpace=wrap;html=1;backgroundOutline=1;" vertex="1" parent="1">
          <mxGeometry x="95" y="-309.75" width="155" height="97.75" as="geometry" />
        </mxCell>
        <mxCell id="Mb6mEWIL-vGKcx3RdBDx-47" value="" style="edgeStyle=orthogonalEdgeStyle;rounded=0;orthogonalLoop=1;jettySize=auto;html=1;" edge="1" parent="1" source="Mb6mEWIL-vGKcx3RdBDx-42" target="Mb6mEWIL-vGKcx3RdBDx-46">
          <mxGeometry relative="1" as="geometry" />
        </mxCell>
        <mxCell id="Mb6mEWIL-vGKcx3RdBDx-42" value="Panggil Fungsi clear();" style="shape=process;whiteSpace=wrap;html=1;backgroundOutline=1;" vertex="1" parent="1">
          <mxGeometry x="330.99" y="-309.75" width="155" height="97.75" as="geometry" />
        </mxCell>
        <mxCell id="Mb6mEWIL-vGKcx3RdBDx-51" value="" style="edgeStyle=orthogonalEdgeStyle;rounded=0;orthogonalLoop=1;jettySize=auto;html=1;" edge="1" parent="1" source="Mb6mEWIL-vGKcx3RdBDx-46" target="Mb6mEWIL-vGKcx3RdBDx-48">
          <mxGeometry relative="1" as="geometry" />
        </mxCell>
        <mxCell id="Mb6mEWIL-vGKcx3RdBDx-46" value="X = X - -" style="whiteSpace=wrap;html=1;" vertex="1" parent="1">
          <mxGeometry x="579.24" y="-312" width="154.5" height="100" as="geometry" />
        </mxCell>
        <mxCell id="Mb6mEWIL-vGKcx3RdBDx-54" value="" style="edgeStyle=orthogonalEdgeStyle;rounded=0;orthogonalLoop=1;jettySize=auto;html=1;" edge="1" parent="1" source="Mb6mEWIL-vGKcx3RdBDx-48" target="Mb6mEWIL-vGKcx3RdBDx-53">
          <mxGeometry relative="1" as="geometry" />
        </mxCell>
        <mxCell id="Mb6mEWIL-vGKcx3RdBDx-55" value="" style="edgeStyle=orthogonalEdgeStyle;rounded=0;orthogonalLoop=1;jettySize=auto;html=1;" edge="1" parent="1" source="Mb6mEWIL-vGKcx3RdBDx-48" target="Mb6mEWIL-vGKcx3RdBDx-52">
          <mxGeometry relative="1" as="geometry" />
        </mxCell>
        <mxCell id="Mb6mEWIL-vGKcx3RdBDx-58" value="" style="edgeStyle=orthogonalEdgeStyle;rounded=0;orthogonalLoop=1;jettySize=auto;html=1;" edge="1" parent="1" source="Mb6mEWIL-vGKcx3RdBDx-48" target="Mb6mEWIL-vGKcx3RdBDx-53">
          <mxGeometry relative="1" as="geometry" />
        </mxCell>
        <mxCell id="Mb6mEWIL-vGKcx3RdBDx-48" value="IF X == 0" style="rhombus;whiteSpace=wrap;html=1;" vertex="1" parent="1">
          <mxGeometry x="598" y="-170" width="113.51" height="100" as="geometry" />
        </mxCell>
        <mxCell id="Mb6mEWIL-vGKcx3RdBDx-57" value="" style="edgeStyle=orthogonalEdgeStyle;rounded=0;orthogonalLoop=1;jettySize=auto;html=1;" edge="1" parent="1" source="Mb6mEWIL-vGKcx3RdBDx-52" target="Mb6mEWIL-vGKcx3RdBDx-56">
          <mxGeometry relative="1" as="geometry" />
        </mxCell>
        <mxCell id="Mb6mEWIL-vGKcx3RdBDx-52" value="YES" style="text;html=1;align=center;verticalAlign=middle;whiteSpace=wrap;rounded=0;" vertex="1" parent="1">
          <mxGeometry x="504" y="-135" width="60" height="30" as="geometry" />
        </mxCell>
        <mxCell id="Mb6mEWIL-vGKcx3RdBDx-59" style="edgeStyle=orthogonalEdgeStyle;rounded=0;orthogonalLoop=1;jettySize=auto;html=1;" edge="1" parent="1" source="Mb6mEWIL-vGKcx3RdBDx-53" target="Mb6mEWIL-vGKcx3RdBDx-56">
          <mxGeometry relative="1" as="geometry" />
        </mxCell>
        <mxCell id="Mb6mEWIL-vGKcx3RdBDx-53" value="NO" style="text;html=1;align=center;verticalAlign=middle;whiteSpace=wrap;rounded=0;" vertex="1" parent="1">
          <mxGeometry x="624.75" y="-40" width="60" height="30" as="geometry" />
        </mxCell>
        <mxCell id="Mb6mEWIL-vGKcx3RdBDx-60" style="edgeStyle=orthogonalEdgeStyle;rounded=0;orthogonalLoop=1;jettySize=auto;html=1;" edge="1" parent="1" source="Mb6mEWIL-vGKcx3RdBDx-56" target="Mb6mEWIL-vGKcx3RdBDx-17">
          <mxGeometry relative="1" as="geometry">
            <Array as="points">
              <mxPoint x="30" y="-120" />
              <mxPoint x="30" y="-717" />
            </Array>
          </mxGeometry>
        </mxCell>
        <mxCell id="Mb6mEWIL-vGKcx3RdBDx-56" value="Panggil Fungsi clear();&lt;br&gt;&lt;br&gt;break;" style="shape=process;whiteSpace=wrap;html=1;backgroundOutline=1;" vertex="1" parent="1">
          <mxGeometry x="250" y="-165" width="204" height="90" as="geometry" />
        </mxCell>
      </root>
    </mxGraphModel>
  </diagram>
</mxfile>
